<?xml version="1.0" encoding="iso-8859-1"?>
<!-- Generator: Adobe Illustrator 19.0.0, SVG Export Plug-In . SVG Version: 6.00 Build 0)  -->
<svg version="1.1" id="Capa_1" xmlns="http://www.w3.org/2000/svg" xmlns:xlink="http://www.w3.org/1999/xlink" x="0px" y="0px"
	 viewBox="0 0 512.108 512.108" style="enable-background:new 0 0 512.108 512.108;" xml:space="preserve">
<g>
	<g>
		<g>
			<path d="M486.454,34.133H280.081c1.012-2.733,1.544-5.62,1.573-8.533c0-14.138-11.462-25.6-25.6-25.6s-25.6,11.461-25.6,25.6
				c0.029,2.914,0.561,5.801,1.573,8.533H25.654c-14.132,0.015-25.585,11.468-25.6,25.6v8.533c0.015,14.132,11.468,25.585,25.6,25.6
				V332.8c0.039,32.974,26.76,59.695,59.733,59.733h162.133v69.839c-11.755,4.156-18.806,16.176-16.698,28.465
				s12.763,21.271,25.231,21.271s23.123-8.982,25.231-21.271c2.108-12.289-4.943-24.309-16.698-28.465v-69.839h162.133
				c32.974-0.038,59.695-26.759,59.733-59.733V93.867c14.132-0.015,25.585-11.468,25.6-25.6v-8.533
				C512.039,45.601,500.586,34.149,486.454,34.133z M256.054,17.067c4.713,0,8.533,3.82,8.533,8.533s-3.82,8.533-8.533,8.533
				c-4.711-0.005-8.529-3.823-8.533-8.533C247.521,20.887,251.341,17.067,256.054,17.067z M256.054,494.933
				c-4.713,0-8.533-3.82-8.533-8.533s3.82-8.533,8.533-8.533s8.533,3.82,8.533,8.533
				C264.583,491.111,260.765,494.929,256.054,494.933z M469.388,332.8c-0.028,23.553-19.114,42.639-42.667,42.667H85.387
				c-23.553-0.028-42.639-19.114-42.667-42.667V93.867h426.667V332.8z M494.988,68.267c-0.005,4.711-3.822,8.529-8.533,8.533h-460.8
				c-4.711-0.005-8.529-3.822-8.533-8.533v-8.533c0.005-4.711,3.822-8.529,8.533-8.533h460.8c4.711,0.005,8.529,3.822,8.533,8.533
				V68.267z"/>
			<path d="M102.454,349.867c18.843-0.02,34.113-15.29,34.133-34.133c-0.024-7.365-2.453-14.521-6.917-20.38l31.638-39.533
				c1.798,0.318,3.65,0.045,5.279-0.779l38.266-19.829l38.267,19.829c1.581,0.942,3.473,1.212,5.254,0.748l31.663,39.563
				c-4.464,5.859-6.892,13.015-6.917,20.38c-0.055,14.582,9.159,27.589,22.934,32.373s29.068,0.289,38.064-11.188
				c8.995-11.477,9.706-27.401,1.77-39.634l57.718-62.516c4.919,2.702,10.435,4.134,16.048,4.165
				c15.781,0.141,29.639-10.461,33.631-25.729c3.992-15.268-2.903-31.297-16.733-38.898c-13.83-7.601-31.057-4.831-41.807,6.724
				c-10.75,11.554-12.271,28.936-3.693,42.183l-57.767,62.571c-9.232-5.146-20.368-5.569-29.965-1.14l-39.796-49.726l-5.354-30.756
				l30.858-29.65c2.356-2.258,3.217-5.663,2.217-8.77s-3.686-5.37-6.917-5.83l-42.75-6.125l-19.092-38.142
				c-1.605-2.687-4.504-4.332-7.633-4.332s-6.028,1.645-7.633,4.332l-19.092,38.142l-42.75,6.125
				c-3.231,0.46-5.917,2.723-6.917,5.83s-0.139,6.512,2.217,8.77l30.858,29.65l-5.354,30.756l-39.796,49.726
				c-4.375-1.994-9.125-3.031-13.933-3.044c-18.851,0-34.133,15.282-34.133,34.133S83.603,349.867,102.454,349.867z
				 M409.654,187.733c9.426,0,17.067,7.641,17.067,17.067c0,9.426-7.641,17.067-17.067,17.067
				c-9.397-0.068-16.999-7.669-17.067-17.067C392.598,195.379,400.233,187.744,409.654,187.733z M307.254,298.667
				c9.421,0.011,17.056,7.645,17.067,17.067c0,9.426-7.641,17.067-17.067,17.067s-17.067-7.641-17.067-17.067
				S297.829,298.667,307.254,298.667z M155.113,174.325l29.858-4.279c2.77-0.396,5.17-2.124,6.425-4.625l13.458-26.892
				l13.458,26.892c1.255,2.501,3.655,4.229,6.425,4.625l29.858,4.279L233.079,195c-2.048,1.965-2.985,4.82-2.5,7.617l5.108,29.354
				l-26.908-13.946c-2.461-1.278-5.389-1.278-7.85,0l-26.908,13.946l5.108-29.354c0.485-2.797-0.452-5.651-2.5-7.617
				L155.113,174.325z M102.454,298.667c9.426,0,17.067,7.641,17.067,17.067S111.88,332.8,102.454,332.8s-17.067-7.641-17.067-17.067
				C85.398,306.312,93.033,298.677,102.454,298.667z"/>
			<path d="M349.921,128h34.133c4.713,0,8.533-3.82,8.533-8.533s-3.82-8.533-8.533-8.533h-34.133c-4.713,0-8.533,3.82-8.533,8.533
				S345.208,128,349.921,128z"/>
			<path d="M418.188,128h25.6c4.713,0,8.533-3.82,8.533-8.533s-3.82-8.533-8.533-8.533h-25.6c-4.713,0-8.533,3.82-8.533,8.533
				S413.475,128,418.188,128z"/>
			<path d="M324.321,162.133h25.6c4.713,0,8.533-3.821,8.533-8.533c0-4.713-3.82-8.533-8.533-8.533h-25.6
				c-4.713,0-8.533,3.821-8.533,8.533C315.788,158.313,319.608,162.133,324.321,162.133z"/>
			<path d="M378.02,147.565c-1.6,1.6-2.499,3.771-2.499,6.035c-0.001,2.263,0.898,4.434,2.499,6.035
				c1.6,1.6,3.771,2.499,6.035,2.499h17.067c4.713,0,8.533-3.821,8.533-8.533c0-4.713-3.82-8.533-8.533-8.533h-17.067
				C381.791,145.066,379.62,145.965,378.02,147.565z"/>
			<path d="M443.788,145.067h-8.533c-4.713,0-8.533,3.821-8.533,8.533c0,4.713,3.82,8.533,8.533,8.533h8.533
				c4.713,0,8.533-3.821,8.533-8.533C452.321,148.887,448.5,145.067,443.788,145.067z"/>
		</g>
	</g>
</g>
<g>
</g>
<g>
</g>
<g>
</g>
<g>
</g>
<g>
</g>
<g>
</g>
<g>
</g>
<g>
</g>
<g>
</g>
<g>
</g>
<g>
</g>
<g>
</g>
<g>
</g>
<g>
</g>
<g>
</g>
</svg>
